<svg width="480" height="480" fill="none" xmlns="http://www.w3.org/2000/svg"><path d="M64.045 397.999l167.749-167.553 166.641 167.553H64.045zM64 64h167.749L64 230.447V64z" fill="#4285F4"/><path d="M231.795 64L64.047 230.447V398l167.748-167.553L398.436 64H231.795z" fill="#E76F44"/><path d="M348.757 321.024c-2.214-2.242-2.203-5.877.051-8.097a5.737 5.737 0 018.107.064c2.214 2.243 2.203 5.878-.051 8.097-2.254 2.219-5.894 2.179-8.107-.064zm-44.477-45.056c-2.213-2.242-2.203-5.877.051-8.096a5.736 5.736 0 018.108.064c2.213 2.242 2.202 5.877-.052 8.096a5.736 5.736 0 01-8.107-.064zm70.453 22.356l22.144-5.734a2.383 2.383 0 001.698-2.905 2.393 2.393 0 00-2.911-1.7l-22.424 5.816c-3.351-9.144-8.737-17.807-16.201-25.367-7.463-7.561-16.059-13.063-25.167-16.539l6.143-22.31a2.39 2.39 0 00-1.662-2.931 2.386 2.386 0 00-2.932 1.654l-6.056 22.031c-21.421-6.503-45.016-2.118-63.117 12.949l96.623 97.88c15.354-17.873 20.081-41.373 13.862-62.844z" fill="#3DDC84"/></svg>